<svg width="18" height="18" viewBox="0 0 18 18" fill="none" xmlns="http://www.w3.org/2000/svg">
<path d="M6 0.75V3M12 0.75V3M12.75 6H5.25M12.75 12.75H11.25M9 16.5C7.60603 16.5 6.90905 16.5 6.32946 16.3847C3.94931 15.9113 2.08873 14.0507 1.61529 11.6705C1.5 11.0909 1.5 10.394 1.5 9C1.5 7.60603 1.5 6.90905 1.61529 6.32946C2.08873 3.94931 3.94931 2.08873 6.32946 1.61529C6.90905 1.5 7.60603 1.5 9 1.5C10.394 1.5 11.0909 1.5 11.6705 1.61529C14.0507 2.08873 15.9113 3.94931 16.3847 6.32946C16.5 6.90905 16.5 7.60603 16.5 9C16.5 10.394 16.5 11.0909 16.3847 11.6705C15.9113 14.0507 14.0507 15.9113 11.6705 16.3847C11.0909 16.5 10.394 16.5 9 16.5Z" stroke="#007A7A" stroke-linecap="round" stroke-linejoin="round"/>
</svg>
