<svg width="36" height="36" viewBox="0 0 36 36" fill="none" xmlns="http://www.w3.org/2000/svg">
<rect width="36" height="36" rx="8" fill="#F8F9FA"/>
<g opacity="0.7">
<path d="M18 10.5C17.3125 10.5 16.75 11.0625 16.75 11.75C16.75 12.4375 17.3125 13 18 13C18.6875 13 19.25 12.4375 19.25 11.75C19.25 11.0625 18.6875 10.5 18 10.5ZM18 23C17.3125 23 16.75 23.5625 16.75 24.25C16.75 24.9375 17.3125 25.5 18 25.5C18.6875 25.5 19.25 24.9375 19.25 24.25C19.25 23.5625 18.6875 23 18 23ZM18 16.75C17.3125 16.75 16.75 17.3125 16.75 18C16.75 18.6875 17.3125 19.25 18 19.25C18.6875 19.25 19.25 18.6875 19.25 18C19.25 17.3125 18.6875 16.75 18 16.75Z" fill="#6C757D"/>
</g>
</svg>
