<svg width="25" height="24" viewBox="0 0 25 24" fill="none" xmlns="http://www.w3.org/2000/svg">
<path d="M12.5 23.9922C10.8516 23.9922 9.30469 23.6797 7.85938 23.0547C6.41406 22.4375 5.14453 21.582 4.05078 20.4883C2.95703 19.3867 2.09766 18.1172 1.47266 16.6797C0.855469 15.2344 0.546875 13.6875 0.546875 12.0391C0.546875 10.3906 0.855469 8.84375 1.47266 7.39844C2.09766 5.95312 2.95703 4.68359 4.05078 3.58984C5.14453 2.49609 6.41406 1.64063 7.85938 1.02344C9.30469 0.398438 10.8516 0.0859375 12.5 0.0859375C14.1484 0.0859375 15.6953 0.398438 17.1406 1.02344C18.5859 1.64063 19.8555 2.49609 20.9492 3.58984C22.043 4.68359 22.8984 5.95312 23.5156 7.39844C24.1406 8.84375 24.4531 10.3906 24.4531 12.0391C24.4531 13.6875 24.1406 15.2344 23.5156 16.6797C22.8984 18.1172 22.043 19.3867 20.9492 20.4883C19.8555 21.582 18.5859 22.4375 17.1406 23.0547C15.6953 23.6797 14.1484 23.9922 12.5 23.9922ZM11.1875 17.7578C11.3906 17.7578 11.5742 17.7109 11.7383 17.6172C11.9023 17.5234 12.0469 17.3828 12.1719 17.1953L17.6797 8.51172C17.75 8.39453 17.8164 8.26953 17.8789 8.13672C17.9414 8.00391 17.9727 7.87109 17.9727 7.73828C17.9727 7.46484 17.8711 7.25 17.668 7.09375C17.4648 6.92969 17.2383 6.84766 16.9883 6.84766C16.6445 6.84766 16.3633 7.02734 16.1445 7.38672L11.1406 15.4258L8.76172 12.3555C8.61328 12.1602 8.46875 12.0273 8.32812 11.957C8.19531 11.8867 8.04297 11.8516 7.87109 11.8516C7.60547 11.8516 7.38281 11.9492 7.20312 12.1445C7.02344 12.332 6.93359 12.5586 6.93359 12.8242C6.93359 12.957 6.95703 13.0898 7.00391 13.2227C7.05859 13.3477 7.12891 13.4688 7.21484 13.5859L10.1562 17.1953C10.3125 17.3984 10.4727 17.543 10.6367 17.6289C10.8008 17.7148 10.9844 17.7578 11.1875 17.7578Z" fill="#007A7A"/>
</svg>
