<svg width="36" height="36" viewBox="0 0 36 36" fill="none" xmlns="http://www.w3.org/2000/svg">
<rect x="0.5" y="0.5" width="35" height="35" rx="17.5" stroke="#E9E9E9"/>
<g opacity="0.7">
<path d="M16.3713 12.75L14.8713 14.25H12V23.25H24V14.25H21.1287L19.6287 12.75H16.3713ZM15.75 11.25H20.25L21.75 12.75H24.75C25.1642 12.75 25.5 13.0858 25.5 13.5V24C25.5 24.4142 25.1642 24.75 24.75 24.75H11.25C10.8358 24.75 10.5 24.4142 10.5 24V13.5C10.5 13.0858 10.8358 12.75 11.25 12.75H14.25L15.75 11.25ZM18 22.5C15.7218 22.5 13.875 20.6532 13.875 18.375C13.875 16.0968 15.7218 14.25 18 14.25C20.2782 14.25 22.125 16.0968 22.125 18.375C22.125 20.6532 20.2782 22.5 18 22.5ZM18 21C19.4497 21 20.625 19.8247 20.625 18.375C20.625 16.9253 19.4497 15.75 18 15.75C16.5502 15.75 15.375 16.9253 15.375 18.375C15.375 19.8247 16.5502 21 18 21Z" fill="#6C757D"/>
</g>
</svg>
