<svg width="20" height="20" viewBox="0 0 20 20" fill="none" xmlns="http://www.w3.org/2000/svg">
<g opacity="0.7">
<path d="M9.99935 1.66675H9.58268C6.86101 1.66675 5.50018 1.66675 4.45457 2.18238C3.46741 2.6692 2.66847 3.46814 2.18165 4.4553C1.66602 5.50091 1.66602 6.86175 1.66602 9.58342V10.3334C1.66602 13.1337 1.66602 14.5338 2.21098 15.6034C2.69035 16.5442 3.45525 17.3091 4.39606 17.7884C5.46562 18.3334 6.86575 18.3334 9.66602 18.3334H10.416C13.1377 18.3334 14.4985 18.3334 15.5441 17.8178C16.5313 17.331 17.3302 16.532 17.817 15.5449C18.3327 14.4993 18.3327 13.1384 18.3327 10.4167V10.0001M14.166 3.33341C13.9577 4.79175 15.2077 6.04175 16.666 5.83341M9.16602 10.8334L9.56941 9.21985C9.72944 8.57973 9.80945 8.25968 9.93812 7.96127C10.0524 7.69635 10.1949 7.44456 10.3633 7.2103C10.553 6.94644 10.7863 6.71316 11.2528 6.2466L14.5827 2.91675C15.273 2.22639 16.3923 2.22639 17.0827 2.91675C17.773 3.6071 17.773 4.72639 17.0827 5.41675L13.7528 8.7466C13.2863 9.21316 13.053 9.44644 12.7891 9.63612C12.5549 9.80452 12.3031 9.94708 12.0382 10.0613C11.7398 10.19 11.4197 10.27 10.7796 10.43L9.16602 10.8334Z" stroke="#6C757D" stroke-linecap="round" stroke-linejoin="round"/>
</g>
</svg>
