<svg width="20" height="20" viewBox="0 0 20 20" fill="none" xmlns="http://www.w3.org/2000/svg">
<g opacity="0.7">
<path d="M7.50008 0.833374V2.50004H12.5001V0.833374H14.1667V2.50004H17.5001C17.9603 2.50004 18.3334 2.87314 18.3334 3.33337V16.6667C18.3334 17.127 17.9603 17.5 17.5001 17.5H2.50008C2.03985 17.5 1.66675 17.127 1.66675 16.6667V3.33337C1.66675 2.87314 2.03985 2.50004 2.50008 2.50004H5.83341V0.833374H7.50008ZM16.6667 9.16671H3.33341V15.8334H16.6667V9.16671ZM6.66675 10.8334V12.5H5.00008V10.8334H6.66675ZM10.8334 10.8334V12.5H9.16675V10.8334H10.8334ZM15.0001 10.8334V12.5H13.3334V10.8334H15.0001ZM5.83341 4.16671H3.33341V7.50004H16.6667V4.16671H14.1667V5.83337H12.5001V4.16671H7.50008V5.83337H5.83341V4.16671Z" fill="#6C757D"/>
</g>
</svg>
