<svg width="20" height="20" viewBox="0 0 20 20" fill="none" xmlns="http://www.w3.org/2000/svg">
<g opacity="0.7">
<path d="M9.58333 5.83341C10.7292 5.83341 11.6667 4.89591 11.6667 3.75008C11.6667 2.60425 10.7292 1.66675 9.58333 1.66675C8.4375 1.66675 7.5 2.60425 7.5 3.75008C7.5 4.89591 8.4375 5.83341 9.58333 5.83341Z" stroke="#6C757D" stroke-linecap="round"/>
<path d="M9.58333 7.91675C8.4375 7.91675 7.5 8.85425 7.5 10.0001C7.5 11.1459 8.4375 12.0834 9.58333 12.0834C10.7292 12.0834 11.6667 11.1459 11.6667 10.0001C11.6667 8.85425 10.7292 7.91675 9.58333 7.91675Z" stroke="#6C757D" stroke-linecap="round"/>
<path d="M9.58333 14.1667C8.4375 14.1667 7.5 15.1042 7.5 16.2501C7.5 17.3959 8.4375 18.3334 9.58333 18.3334C10.7292 18.3334 11.6667 17.3959 11.6667 16.2501C11.6667 15.1042 10.7292 14.1667 9.58333 14.1667Z" stroke="#6C757D" stroke-linecap="round"/>
</g>
</svg>
