<svg width="36" height="36" viewBox="0 0 36 36" fill="none" xmlns="http://www.w3.org/2000/svg">
<rect width="36" height="36" rx="8" fill="#F8F9FA"/>
<path d="M24 25.5H22.5V24C22.5 22.7573 21.4927 21.75 20.25 21.75H15.75C14.5074 21.75 13.5 22.7573 13.5 24V25.5H12V24C12 21.929 13.6789 20.25 15.75 20.25H20.25C22.321 20.25 24 21.929 24 24V25.5ZM18 18.75C15.5147 18.75 13.5 16.7353 13.5 14.25C13.5 11.7647 15.5147 9.75 18 9.75C20.4853 9.75 22.5 11.7647 22.5 14.25C22.5 16.7353 20.4853 18.75 18 18.75ZM18 17.25C19.6568 17.25 21 15.9069 21 14.25C21 12.5931 19.6568 11.25 18 11.25C16.3431 11.25 15 12.5931 15 14.25C15 15.9069 16.3431 17.25 18 17.25Z" fill="#007A7A"/>
</svg>
