<svg width="80" height="81" viewBox="0 0 80 81" fill="none" xmlns="http://www.w3.org/2000/svg">
<circle cx="40" cy="40.5" r="40" fill="#F8F9FA"/>
<path d="M29.3333 53.3333C29.3333 47.4423 34.1089 42.6667 39.9999 42.6667C45.891 42.6667 50.6666 47.4423 50.6666 53.3333H47.9999C47.9999 48.9151 44.4182 45.3333 39.9999 45.3333C35.5816 45.3333 31.9999 48.9151 31.9999 53.3333H29.3333ZM39.9999 41.3333C35.5799 41.3333 31.9999 37.7533 31.9999 33.3333C31.9999 28.9133 35.5799 25.3333 39.9999 25.3333C44.4199 25.3333 47.9999 28.9133 47.9999 33.3333C47.9999 37.7533 44.4199 41.3333 39.9999 41.3333ZM39.9999 38.6667C42.9466 38.6667 45.3333 36.28 45.3333 33.3333C45.3333 30.3867 42.9466 28 39.9999 28C37.0533 28 34.6666 30.3867 34.6666 33.3333C34.6666 36.28 37.0533 38.6667 39.9999 38.6667Z" fill="#212529"/>
</svg>
