<svg width="20" height="20" viewBox="0 0 20 20" fill="none" xmlns="http://www.w3.org/2000/svg">
<g opacity="0.7">
<path d="M15.0262 13.8473L18.5951 17.4162L17.4166 18.5947L13.8477 15.0258C12.5644 16.0525 10.937 16.6667 9.16699 16.6667C5.02699 16.6667 1.66699 13.3067 1.66699 9.16666C1.66699 5.02666 5.02699 1.66666 9.16699 1.66666C13.307 1.66666 16.667 5.02666 16.667 9.16666C16.667 10.9367 16.0528 12.5641 15.0262 13.8473ZM13.3542 13.229C14.3732 12.1788 15.0003 10.7463 15.0003 9.16666C15.0003 5.94374 12.3899 3.33332 9.16699 3.33332C5.94408 3.33332 3.33366 5.94374 3.33366 9.16666C3.33366 12.3896 5.94408 15 9.16699 15C10.7467 15 12.1792 14.3729 13.2293 13.3539L13.3542 13.229Z" fill="#6C757D"/>
</g>
</svg>
