<svg width="20" height="20" viewBox="0 0 20 20" fill="none" xmlns="http://www.w3.org/2000/svg">
<g opacity="0.7">
<path d="M4.4354 15C4.85922 15 5.2218 14.7195 5.46923 14.3754C5.92303 13.7443 6.66368 13.3333 7.50033 13.3333C8.33695 13.3333 9.07762 13.7443 9.53142 14.3754C9.77886 14.7195 10.1414 15 10.5653 15H17.5003C17.9606 15 18.3337 15.3731 18.3337 15.8333C18.3337 16.2936 17.9606 16.6667 17.5003 16.6667H10.5653C10.1414 16.6667 9.77886 16.9472 9.53142 17.2913C9.07762 17.9224 8.33695 18.3333 7.50033 18.3333C6.66368 18.3333 5.92303 17.9224 5.46923 17.2913C5.2218 16.9472 4.85922 16.6667 4.4354 16.6667H2.50033C2.04009 16.6667 1.66699 16.2936 1.66699 15.8333C1.66699 15.3731 2.04009 15 2.50033 15H4.4354ZM9.43538 9.16666C9.85921 9.16666 10.2218 8.88613 10.4692 8.54203C10.923 7.91096 11.6637 7.49999 12.5003 7.49999C13.3369 7.49999 14.0776 7.91096 14.5314 8.54203C14.7789 8.88613 15.1414 9.16666 15.5653 9.16666H17.5003C17.9606 9.16666 18.3337 9.53975 18.3337 9.99999C18.3337 10.4602 17.9606 10.8333 17.5003 10.8333H15.5653C15.1414 10.8333 14.7789 11.1139 14.5314 11.458C14.0776 12.089 13.3369 12.5 12.5003 12.5C11.6637 12.5 10.923 12.089 10.4692 11.458C10.2218 11.1139 9.8592 10.8333 9.43538 10.8333H2.50033C2.04009 10.8333 1.66699 10.4602 1.66699 9.99999C1.66699 9.53975 2.04009 9.16666 2.50033 9.16666H9.43538ZM4.4354 3.33332C4.85922 3.33332 5.2218 3.05281 5.46923 2.70871C5.92303 2.07763 6.66368 1.66666 7.50033 1.66666C8.33695 1.66666 9.07762 2.07762 9.53142 2.7087C9.77886 3.0528 10.1414 3.33332 10.5653 3.33332H17.5003C17.9606 3.33332 18.3337 3.70642 18.3337 4.16666C18.3337 4.62689 17.9606 4.99999 17.5003 4.99999H10.5653C10.1414 4.99999 9.77886 5.28052 9.53142 5.62462C9.07762 6.25569 8.33695 6.66666 7.50033 6.66666C6.66368 6.66666 5.92303 6.25568 5.46923 5.6246C5.2218 5.28051 4.85922 4.99999 4.4354 4.99999H2.50033C2.04009 4.99999 1.66699 4.62689 1.66699 4.16666C1.66699 3.70642 2.04009 3.33332 2.50033 3.33332H4.4354ZM7.50033 4.99999C7.96056 4.99999 8.33366 4.62689 8.33366 4.16666C8.33366 3.70642 7.96056 3.33332 7.50033 3.33332C7.04009 3.33332 6.66699 3.70642 6.66699 4.16666C6.66699 4.62689 7.04009 4.99999 7.50033 4.99999ZM12.5003 10.8333C12.9606 10.8333 13.3337 10.4602 13.3337 9.99999C13.3337 9.53974 12.9606 9.16666 12.5003 9.16666C12.0401 9.16666 11.667 9.53974 11.667 9.99999C11.667 10.4602 12.0401 10.8333 12.5003 10.8333ZM7.50033 16.6667C7.96056 16.6667 8.33366 16.2936 8.33366 15.8333C8.33366 15.3731 7.96056 15 7.50033 15C7.04009 15 6.66699 15.3731 6.66699 15.8333C6.66699 16.2936 7.04009 16.6667 7.50033 16.6667Z" fill="#6C757D"/>
</g>
</svg>
