<svg width="20" height="20" viewBox="0 0 20 20" fill="none" xmlns="http://www.w3.org/2000/svg">
<g opacity="0.7">
<path d="M10.0001 18.3334C5.39771 18.3334 1.66675 14.6024 1.66675 10C1.66675 5.39765 5.39771 1.66669 10.0001 1.66669C14.6024 1.66669 18.3334 5.39765 18.3334 10C18.3334 14.6024 14.6024 18.3334 10.0001 18.3334ZM10.0001 16.6667C13.682 16.6667 16.6667 13.6819 16.6667 10C16.6667 6.31812 13.682 3.33335 10.0001 3.33335C6.31818 3.33335 3.33341 6.31812 3.33341 10C3.33341 13.6819 6.31818 16.6667 10.0001 16.6667ZM10.8334 10H14.1667V11.6667H9.16675V5.83335H10.8334V10Z" fill="#6C757D"/>
</g>
</svg>
