<svg width="20" height="20" viewBox="0 0 20 20" fill="none" xmlns="http://www.w3.org/2000/svg">
<path d="M10.959 1.04199C13.7592 1.04199 15.1599 1.04195 16.2295 1.58691C17.1701 2.06624 17.9347 2.83091 18.4141 3.77148C18.959 4.84104 18.959 6.24173 18.959 9.04199V10.958C18.959 13.7583 18.959 15.159 18.4141 16.2285C17.9347 17.1691 17.1701 17.9338 16.2295 18.4131C15.1599 18.9581 13.7592 18.958 10.959 18.958H9.04297C6.24271 18.958 4.84202 18.9581 3.77246 18.4131C2.83188 17.9338 2.06722 17.1691 1.58789 16.2285C1.04292 15.159 1.04297 13.7583 1.04297 10.958V9.04199C1.04297 6.24173 1.04292 4.84104 1.58789 3.77148C2.06722 2.83091 2.83188 2.06624 3.77246 1.58691C4.84202 1.04195 6.24271 1.04199 9.04297 1.04199H10.959ZM5.00098 12.5C4.72483 12.5 4.50098 12.7239 4.50098 13V13.333C4.50098 14.5296 5.47135 15.5 6.66797 15.5H7.08398C7.36013 15.5 7.58398 15.2761 7.58398 15C7.58398 14.7239 7.36013 14.5 7.08398 14.5H6.66797C6.02364 14.5 5.50098 13.9773 5.50098 13.333V13C5.50098 12.7239 5.27712 12.5 5.00098 12.5ZM9.16797 14.5C8.89183 14.5 8.66797 14.7239 8.66797 15C8.66797 15.2761 8.89183 15.5 9.16797 15.5H10.834C11.1101 15.5 11.334 15.2761 11.334 15C11.334 14.7239 11.1101 14.5 10.834 14.5H9.16797ZM15.001 12.417C14.7248 12.417 14.501 12.6409 14.501 12.917V13.333C14.501 13.9773 13.9783 14.5 13.334 14.5H12.918C12.6418 14.5 12.418 14.7239 12.418 15C12.418 15.2761 12.6418 15.5 12.918 15.5H13.334C14.5306 15.5 15.501 14.5296 15.501 13.333V12.917C15.501 12.6409 15.2771 12.417 15.001 12.417ZM5.00098 8.66699C4.72483 8.66699 4.50098 8.89085 4.50098 9.16699V10.833C4.50098 11.1091 4.72483 11.333 5.00098 11.333C5.27712 11.333 5.50098 11.1091 5.50098 10.833V9.16699C5.50098 8.89085 5.27712 8.66699 5.00098 8.66699ZM15.001 8.66699C14.7248 8.66699 14.501 8.89085 14.501 9.16699V10.833C14.501 11.1091 14.7248 11.333 15.001 11.333C15.2771 11.333 15.501 11.1091 15.501 10.833V9.16699C15.501 8.89085 15.2771 8.66699 15.001 8.66699ZM6.66797 4.5C5.47135 4.5 4.50098 5.47038 4.50098 6.66699V7.08301C4.50098 7.35915 4.72483 7.58301 5.00098 7.58301C5.27712 7.58301 5.50098 7.35915 5.50098 7.08301V6.66699C5.50098 6.02266 6.02364 5.5 6.66797 5.5H7.08398C7.36013 5.5 7.58398 5.27614 7.58398 5C7.58398 4.72386 7.36013 4.5 7.08398 4.5H6.66797ZM12.918 4.5C12.6418 4.5 12.418 4.72386 12.418 5C12.418 5.27614 12.6418 5.5 12.918 5.5H13.334C13.9783 5.5 14.501 6.02266 14.501 6.66699V7.08301C14.501 7.35915 14.7248 7.58301 15.001 7.58301C15.2771 7.58301 15.501 7.35915 15.501 7.08301V6.66699C15.501 5.47038 14.5306 4.5 13.334 4.5H12.918ZM9.16797 4.5C8.89183 4.5 8.66797 4.72386 8.66797 5C8.66797 5.27614 8.89183 5.5 9.16797 5.5H10.834C11.1101 5.5 11.334 5.27614 11.334 5C11.334 4.72386 11.1101 4.5 10.834 4.5H9.16797Z" fill="#007A7A"/>
</svg>
